<svg width="97" height="25" viewBox="0 0 97 25" fill="none" xmlns="http://www.w3.org/2000/svg">
<path d="M57.5215 1.46706L60.8301 1.46706V16.9071C60.8301 17.9784 60.62 18.9763 60.1999 19.9006C59.8007 20.8249 59.244 21.6336 58.5298 22.3268C57.8156 22.9991 56.9858 23.5347 56.0405 23.9339C55.0952 24.333 54.0764 24.5326 52.984 24.5326C51.9127 24.5326 50.9043 24.333 49.959 23.9339C49.0347 23.5347 48.2155 22.9991 47.5012 22.3268C46.808 21.6336 46.2618 20.8249 45.8627 19.9006C45.4636 18.9763 45.264 17.9784 45.264 16.9071V1.46706L48.5726 1.46706V16.9071C48.5726 17.5163 48.6881 18.094 48.9192 18.6401C49.1503 19.1653 49.4654 19.638 49.8645 20.0581C50.2636 20.4572 50.7363 20.7723 51.2824 21.0034C51.8286 21.2345 52.4063 21.35 53.0155 21.35C53.6457 21.35 54.2339 21.2345 54.7801 21.0034C55.3263 20.7723 55.7989 20.4572 56.1981 20.0581C56.6182 19.638 56.9438 19.1653 57.1749 18.6401C57.4059 18.094 57.5215 17.5163 57.5215 16.9071V1.46706Z" fill="white"/>
<path d="M0 24.5326L9.42157 1.43555L18.8431 24.5326H15.4085L14.7153 22.705L13.5494 19.7745L9.42157 9.18707L5.29372 19.7745L4.15935 22.705L3.43462 24.5326H0Z" fill="white"/>
<path d="M62.6685 24.5326L72.09 1.43555L81.5116 24.5326H78.077L77.3838 22.705L76.2179 19.7745L72.09 9.18707L67.9622 19.7745L66.8278 22.705L66.1031 24.5326H62.6685Z" fill="white"/>
<path fill-rule="evenodd" clip-rule="evenodd" d="M34.8144 2.38085C33.4069 1.77166 31.905 1.46706 30.3084 1.46706C28.7119 1.46706 27.2099 1.77166 25.8025 2.38085C24.416 2.99005 23.1976 3.81982 22.1473 4.87017C21.1179 5.8995 20.2987 7.1179 19.6895 8.52536C19.0803 9.93281 18.7757 11.4348 18.7757 13.0313C18.7757 14.6278 19.0803 16.1298 19.6895 17.5373C20.2987 18.9237 21.1179 20.1421 22.1473 21.1925C23.1976 22.2218 24.416 23.0411 25.8025 23.6503C27.2099 24.2595 28.7119 24.5641 30.3084 24.5641H41.8727V13.0313C41.8727 11.4348 41.5681 9.93281 40.9589 8.52536C40.3497 7.1179 39.5199 5.8995 38.4696 4.87017C37.4403 3.81982 36.2219 2.99005 34.8144 2.38085ZM37.9654 9.78576C38.4066 10.7941 38.6271 11.8759 38.6271 13.0313L38.6207 13.3655L38.4696 21.1925L30.403 21.3185H30.3084C29.1741 21.3185 28.1027 21.1084 27.0944 20.6883C26.0861 20.2472 25.2038 19.6485 24.4475 18.8922C23.6913 18.136 23.0926 17.2537 22.6514 16.2454C22.2313 15.237 22.0212 14.1657 22.0212 13.0313C22.0212 11.8759 22.2313 10.7941 22.6514 9.78576C23.0926 8.77744 23.6913 7.89515 24.4475 7.1389C25.2038 6.38266 26.0861 5.79447 27.0944 5.37433C28.1027 4.93319 29.1741 4.71261 30.3084 4.71261C31.4638 4.71261 32.5457 4.93319 33.554 5.37433C34.5623 5.79447 35.4446 6.38266 36.2009 7.1389C36.9571 7.89515 37.5453 8.77744 37.9654 9.78576Z" fill="white"/>
<path d="M85.0943 3.54565C85.3128 3.66483 85.4866 3.83862 85.6157 4.06703C85.7497 4.29047 85.8168 4.54619 85.8168 4.83419C85.8168 5.05267 85.7746 5.25874 85.6901 5.45239C85.6057 5.64604 85.4915 5.81735 85.3475 5.96631C85.2035 6.11031 85.0347 6.22452 84.8411 6.30893C84.6474 6.39334 84.4413 6.43555 84.2229 6.43555H82.1001V0.976034H84.1856C84.3842 0.976034 84.5729 1.01576 84.7517 1.09521C84.9304 1.16969 85.0868 1.27396 85.2209 1.40803C85.355 1.5421 85.4593 1.69851 85.5337 1.87726C85.6132 2.05602 85.6529 2.24719 85.6529 2.45077C85.6529 2.57491 85.6355 2.6916 85.6008 2.80084C85.571 2.90511 85.5288 3.00194 85.4741 3.09132C85.4245 3.18069 85.3649 3.26511 85.2954 3.34455C85.2308 3.41904 85.1638 3.48607 85.0943 3.54565ZM82.8971 3.23283H84.0515C84.1608 3.23283 84.2626 3.21297 84.3569 3.17325C84.4513 3.13352 84.5332 3.0789 84.6027 3.00939C84.6722 2.9349 84.7268 2.85049 84.7666 2.75615C84.8063 2.6618 84.8262 2.5625 84.8262 2.45822C84.8262 2.23478 84.7517 2.04857 84.6027 1.89961C84.4537 1.75064 84.27 1.67616 84.0515 1.67616H82.8971V3.23283ZM84.0888 5.73542C84.2129 5.73542 84.3296 5.71059 84.4389 5.66094C84.5481 5.61128 84.6424 5.54673 84.7219 5.46728C84.8063 5.38287 84.8708 5.28605 84.9155 5.17681C84.9652 5.06757 84.99 4.95336 84.99 4.83419C84.99 4.71005 84.9652 4.59336 84.9155 4.48412C84.8708 4.37489 84.8063 4.28054 84.7219 4.20109C84.6424 4.11668 84.5481 4.05213 84.4389 4.00744C84.3296 3.95779 84.2129 3.93296 84.0888 3.93296H82.8971V5.73542H84.0888ZM88.8201 0.95369C89.1974 0.95369 89.5525 1.02569 89.8852 1.16969C90.2178 1.31369 90.5058 1.50982 90.7491 1.75809C90.9974 2.00637 91.1911 2.29933 91.3301 2.63698C91.4741 2.96966 91.5461 3.32718 91.5461 3.70951C91.5461 4.08689 91.4741 4.44192 91.3301 4.7746C91.1911 5.10729 90.9974 5.39777 90.7491 5.64604C90.5058 5.89431 90.2178 6.09045 89.8852 6.23445C89.5525 6.37844 89.1974 6.45044 88.8201 6.45044C88.4427 6.45044 88.0877 6.37844 87.755 6.23445C87.4273 6.09045 87.1393 5.89431 86.891 5.64604C86.6477 5.39777 86.454 5.10729 86.31 4.7746C86.171 4.44192 86.1015 4.08689 86.1015 3.70951C86.1015 3.32718 86.171 2.96966 86.31 2.63698C86.454 2.29933 86.6477 2.00637 86.891 1.75809C87.1393 1.50982 87.4273 1.31369 87.755 1.16969C88.0877 1.02569 88.4427 0.95369 88.8201 0.95369ZM88.8201 5.69073C89.0783 5.69073 89.3216 5.63859 89.55 5.53432C89.7834 5.43004 89.9845 5.28853 90.1533 5.10977C90.3271 4.93102 90.4636 4.72247 90.5629 4.48412C90.6622 4.24082 90.7119 3.98261 90.7119 3.70951C90.7119 3.43641 90.6622 3.17821 90.5629 2.9349C90.4636 2.6916 90.3271 2.48057 90.1533 2.30181C89.9845 2.11809 89.7834 1.97409 89.55 1.86982C89.3216 1.76554 89.0783 1.7134 88.8201 1.7134C88.5619 1.7134 88.3186 1.76554 88.0901 1.86982C87.8617 1.97409 87.6606 2.11809 87.4868 2.30181C87.318 2.48057 87.1839 2.6916 87.0846 2.9349C86.9853 3.17821 86.9357 3.43641 86.9357 3.70951C86.9357 3.98261 86.9853 4.24082 87.0846 4.48412C87.1839 4.72247 87.318 4.93102 87.4868 5.10977C87.6606 5.28853 87.8617 5.43004 88.0901 5.53432C88.3186 5.63859 88.5619 5.69073 88.8201 5.69073ZM91.8267 1.73575V0.976034H95.3124V1.73575H93.9643V6.4281H93.1748V1.73575H91.8267Z" fill="white"/>
</svg>
